# xmcd
#
# Track frame offsets:
# 150
# 15711
# 32840
# 46917
# 66465
# 80291
# 97020
# 115636
# 127188
# 142574
# 159904
# 172968
# 192440
# 207447
# 225719
# 243556
# 258892
# 272070
# 287110
# 301204
#
# Disc length: 4229 seconds
#
#
# Revision: 0
# Processed by: cddbd v1.5.2PL0 Copyright (c) Steve Scherf et al.
# Submitted via: FreeRIP 2.95 
#
DISCID=14108314
DTITLE=Varios - Festchê
DYEAR=1900
DGENRE=Fandango
TTITLE0=Grupo Minuano - Trancão de Livramento
TTITLE1=Grupo Tradição - Hi Fora
TTITLE2=Os Monarcas - Numa Bailanta
TTITLE3=Os Mateadores - Alô Meu Amor
TTITLE4=Velho Milongueiro - Só To Ficando
TTITLE5=Os Filhos do Rio Grande - Vanerão, Alegria do Povo
TTITLE6=Tchê Garotos - Pau de Macarrão
TTITLE7=Alma Serrana - Requebra na Vaneira
TTITLE8=Grupo Herança - Risca Faca
TTITLE9=Os 4 Gaudérios - Vanera da Alegria
TTITLE10=Garotos de Ouro - Baile da Gabriela
TTITLE11=Grupo Tradição - Eu Quero Você
TTITLE12=Grupo Minuano - Gaiteiros de Bailão
TTITLE13=Tchê Garotos - Pimentinha
TTITLE14=Fogo de Chão - Chega Mais
TTITLE15=Grupo Rodeio - Outra Vaneira
TTITLE16=Grupo Herança - Arrepiou
TTITLE17=Kebradeira - Dá Lhe Vaneira
TTITLE18=Candieiro - Toma Toma
TTITLE19=João Luiz Corrêa - Campeando Gaitaço
EXTD=
EXTT0=
EXTT1=
EXTT2=
EXTT3=
EXTT4=
EXTT5=
EXTT6=
EXTT7=
EXTT8=
EXTT9=
EXTT10=
EXTT11=
EXTT12=
EXTT13=
EXTT14=
EXTT15=
EXTT16=
EXTT17=
EXTT18=
EXTT19=
PLAYORDER=
